<svg xmlns="http://www.w3.org/2000/svg" viewBox="0 0 97 97" ><path d="M66.1455 13.1562C68.3538 8.89282 73.6001 7.22681 77.8635 9.43511C82.1337 11.6469 83.797 16.9054 81.5756 21.1706L72.6468 38.314C72.2895 39.0002 71.8467 39.6264 71.3348 40.1817C73.7748 43.7945 74.5311 48.4399 72.9849 52.8375C72.6326 53.8395 72.2607 54.8841 71.8741 55.952C71.7096 56.4066 71.1818 56.611 70.7533 56.3871L41.9427 41.3313C41.4761 41.0875 41.3681 40.4674 41.7208 40.0766C42.4379 39.2823 43.136 38.4849 43.8063 37.7005C46.9576 34.0124 51.6276 31.9262 56.3444 32.0808C56.3978 31.9709 56.4541 31.8615 56.5133 31.7525L66.1455 13.1562Z" fill="black"/><path d="M37.7187 44.9911C37.4159 44.8329 37.0464 44.8849 36.7961 45.1174C35.0227 46.7652 33.2534 48.2035 31.6027 49.2275C26.0288 52.6853 21.4208 53.9315 18.5592 54.3738C16.8856 54.6325 15.5272 55.71 14.8655 57.1073C14.1743 58.5668 14.2264 60.4794 15.5696 61.9595C17.0496 63.5904 19.242 65.7488 22.4041 68.3456C22.5895 68.4979 22.8339 68.5577 23.0691 68.5105C25.281 68.0659 27.5839 67.6462 29.5936 66.5956C30.1785 66.2898 31.0542 65.7451 32.1524 64.8033C33.2459 63.8654 34.9103 63.9661 35.8699 65.028C36.8294 66.09 36.7208 67.7111 35.6273 68.649C34.2387 69.8398 33.0313 70.614 32.0739 71.1145C31.2906 71.5239 30.4709 71.864 29.634 72.1541C28.9982 72.3744 28.8494 73.2312 29.4015 73.616C30.9943 74.7259 32.7314 75.8849 34.6245 77.0889C35.5927 77.7047 36.5474 78.2835 37.4833 78.8272C37.7504 78.9824 38.0835 78.9682 38.3348 78.7885C39.6858 77.8221 40.8493 76.8523 41.7978 75.9624C43.9436 73.9494 45.7952 71.7314 47.2925 69.1805C48.0211 67.9391 49.6237 67.5022 50.8719 68.2048C52.1201 68.9074 52.5412 70.4833 51.8125 71.7248C50.06 74.7107 47.8912 77.325 45.3769 79.6839C44.9418 80.0921 44.4688 80.5141 43.9597 80.944C43.5092 81.3245 43.5896 82.0488 44.1239 82.2983C47.3079 83.785 49.9873 84.7887 51.831 85.4114C54.5055 86.3147 57.3637 85.2816 58.8983 82.9833C60.8384 80.0776 64.2459 74.5978 67.1715 67.93C67.9306 66.1999 68.7028 64.3137 69.4598 62.3806C69.6083 62.0013 69.4465 61.5714 69.0855 61.3828L37.7187 44.9911Z" fill="black"/><path d="M22.9737 37.9072C25.0539 37.9072 26.7403 36.2208 26.7403 34.1405C26.7403 32.0603 25.0539 30.3739 22.9737 30.3739C20.8934 30.3739 19.207 32.0603 19.207 34.1405C19.207 36.2208 20.8934 37.9072 22.9737 37.9072Z" fill="black"/><path d="M12.7198 49.4854C14.8 49.4854 16.4864 47.799 16.4864 45.7187C16.4864 43.6385 14.8 41.9521 12.7198 41.9521C10.6395 41.9521 8.95313 43.6385 8.95312 45.7187C8.95312 47.799 10.6395 49.4854 12.7198 49.4854Z" fill="black"/></svg>