<svg xmlns="http://www.w3.org/2000/svg" viewBox="0 0 68 65" ><g stroke="none" stroke-width="1" fill="none" fill-rule="evenodd"><g transform="translate(-56.000000, -1017.000000)" fill="#000000" fill-rule="nonzero"><path d="M124,1030 L124,1070 C124,1073.31371 121.313708,1076 118,1076 L62,1076 C58.6862915,1076 56,1073.31371 56,1070 L56,1030 C56,1026.68629 58.6862915,1024 62,1024 L118,1024 C121.313708,1024 124,1026.68629 124,1030 Z M76,1028 L76,1072 L88,1072 L88,1028 L76,1028 Z M60,1040 L60,1048 L72,1048 L72,1040 L60,1040 Z M72,1028 L62,1028 C60.8954305,1028 60,1028.89543 60,1030 L60,1036 L72,1036 L72,1028 Z M60,1052 L60,1060 L72,1060 L72,1052 L60,1052 Z M60,1064 L60,1070 C60,1071.10457 60.8954305,1072 62,1072 L72,1072 L72,1064 L60,1064 Z M92,1040 L92,1048 L104,1048 L104,1040 L92,1040 Z M92,1028 L92,1036 L104,1036 L104,1028 L92,1028 Z M92,1052 L92,1060 L104,1060 L104,1052 L92,1052 Z M92,1064 L92,1072 L104,1072 L104,1064 L92,1064 Z M108,1040 L108,1048 L120,1048 L120,1040 L108,1040 Z M108,1028 L108,1036 L120,1036 L120,1030 C120,1028.89543 119.104569,1028 118,1028 L108,1028 Z M108,1052 L108,1060 L120,1060 L120,1052 L108,1052 Z M108,1064 L108,1072 L118,1072 C119.104569,1072 120,1071.10457 120,1070 L120,1064 L108,1064 Z"/></g></g></svg>