<svg xmlns="http://www.w3.org/2000/svg" viewBox="0 0 68 65"><g stroke="none" stroke-width="1" fill="none" fill-rule="evenodd"><g transform="translate(-176.000000, -1017.000000)" fill="#000000" fill-rule="nonzero"><path d="M244,1030 L244,1070 C244,1073.31371 241.313708,1076 238,1076 L182,1076 C178.686292,1076 176,1073.31371 176,1070 L176,1030 C176,1026.68629 178.686292,1024 182,1024 L238,1024 C241.313708,1024 244,1026.68629 244,1030 Z M180,1040 L180,1048 L240,1048 L240,1040 L180,1040 Z M192,1028 L182,1028 C180.895431,1028 180,1028.89543 180,1030 L180,1036 L192,1036 L192,1028 Z M180,1052 L180,1060 L192,1060 L192,1052 L180,1052 Z M180,1064 L180,1070 C180,1071.10457 180.895431,1072 182,1072 L192,1072 L192,1064 L180,1064 Z M212,1028 L212,1036 L224,1036 L224,1028 L212,1028 Z M212,1052 L212,1060 L224,1060 L224,1052 L212,1052 Z M212,1064 L212,1072 L224,1072 L224,1064 L212,1064 Z M196,1028 L196,1036 L208,1036 L208,1028 L196,1028 Z M196,1052 L196,1060 L208,1060 L208,1052 L196,1052 Z M196,1064 L196,1072 L208,1072 L208,1064 L196,1064 Z M228,1028 L228,1036 L240,1036 L240,1030 C240,1028.89543 239.104569,1028 238,1028 L228,1028 Z M228,1052 L228,1060 L240,1060 L240,1052 L228,1052 Z M228,1064 L228,1072 L238,1072 C239.104569,1072 240,1071.10457 240,1070 L240,1064 L228,1064 Z"/></g></g></svg>