<svg xmlns="http://www.w3.org/2000/svg" viewBox="0 0 32 40"><path d="M8,28H5a1,1,0,0,1-1-1V24a1,1,0,0,0-2,0v3a3,3,0,0,0,3,3H8a1,1,0,0,0,0-2Z"/><path d="M27,2H24a1,1,0,0,0,0,2h3a1,1,0,0,1,1,1V8a1,1,0,0,0,2,0V5A3,3,0,0,0,27,2Z"/><path d="M29,23a1,1,0,0,0-1,1v3a1,1,0,0,1-1,1H24a1,1,0,0,0,0,2h3a3,3,0,0,0,3-3V24A1,1,0,0,0,29,23Z"/><path d="M8,2H5A3,3,0,0,0,2,5V8A1,1,0,0,0,4,8V5A1,1,0,0,1,5,4H8A1,1,0,0,0,8,2Z"/><path d="M3,19a1,1,0,0,0,1-1V14a1,1,0,0,0-2,0v4A1,1,0,0,0,3,19Z"/><path d="M29,13a1,1,0,0,0-1,1v4a1,1,0,0,0,2,0V14A1,1,0,0,0,29,13Z"/><path d="M18,28H14a1,1,0,0,0,0,2h4a1,1,0,0,0,0-2Z"/><path d="M18,2H14a1,1,0,0,0,0,2h4a1,1,0,0,0,0-2Z"/></svg>